<svg width="156" height="150" viewBox="0 0 156 150" fill="none" xmlns="http://www.w3.org/2000/svg">
<g clip-path="url(#clip0_29050_3909)">
<path fill-rule="evenodd" clip-rule="evenodd" d="M108.979 0C143.742 0 161.906 26.001 153.68 63.8286C144.663 105.189 114.795 134.55 78.0416 149.999C31.6242 130.736 4.89594 92.4612 -0.00390625 40.7601C20.4852 37.3456 36.6126 22.9708 35.4754 0H108.979L108.979 0Z" fill="#0094D9"/>
<path fill-rule="evenodd" clip-rule="evenodd" d="M148.195 62.6135C140.4 99.1801 113.969 128.373 78.0702 143.89C35.8333 125.752 11.5106 89.9204 6.19629 45.0638C25.0553 40.2588 39.6941 26.056 41.0045 5.5221H109.239C142.666 5.37448 155.11 31.6633 148.199 62.6113L148.195 62.6135Z" fill="white"/>
<path fill-rule="evenodd" clip-rule="evenodd" d="M143.329 61.5349C135.608 97.0727 110.775 123.586 78.0757 138.434C40.9436 121.904 17.7105 89.8569 11.6694 48.6409C29.1437 42.6668 42.4715 29.201 45.4585 10.56H109.242C139.466 10.4118 149.374 33.8579 143.327 61.5315L143.329 61.5349Z" fill="#0094D9"/>
<path fill-rule="evenodd" clip-rule="evenodd" d="M119.909 52.806H71.1931L85.1108 32.1659L93.9867 29.1096C95.1041 28.7269 94.7839 27.9212 94.2122 27.9212H85.8807L84.9797 18.888C84.9507 18.406 84.1797 18.209 83.9832 18.8591L81.2494 27.9206H72.5745C71.8318 27.9206 71.7382 28.7871 72.5745 29.109L80.4807 31.9694L61.8669 52.8054H22.5035C20.9637 52.8054 20.7383 55.4069 22.5035 55.5335L56.6917 59.84C55.5369 61.934 53.611 63.9592 52.9297 66.3018C52.2211 68.7415 54.1231 70.6112 56.0155 70.1882C59.0673 69.5211 64.1164 63.1848 66.178 60.648L66.9712 59.3989L119.909 55.4398C121.786 55.3422 121.751 52.806 119.909 52.806Z" fill="white"/>
<path fill-rule="evenodd" clip-rule="evenodd" d="M65.4825 93.381C65.1344 94.6761 64.8397 95.6072 64.5808 96.3203V85.6701C65.638 85.6133 67.0978 85.5384 67.0978 85.5384L67.2766 81.9518V75.7239H52.5402C52.5402 75.7239 50.8681 80.1293 50.4082 81.359C49.9426 80.1293 48.2762 75.7239 48.2762 75.7239H33.2434V85.5293C33.2434 85.5293 34.8451 85.6139 35.9392 85.6707C35.9392 85.8018 35.9346 97.5808 35.9346 97.6835C34.949 97.7397 123.133 97.7397 122.042 97.6835V85.6707C123.093 85.6139 124.55 85.539 124.55 85.539L124.737 81.9524V75.7245H92.8137V85.539C92.8137 85.539 94.5034 85.6236 95.5827 85.6707V97.1209C95.2841 96.519 94.8804 95.3273 94.2683 92.6866L84.0792 49.1274L76.764 49.0564C76.764 49.0564 65.4938 93.3055 65.4836 93.381H65.4825ZM79.6557 95.8423C79.8061 96.5565 79.9197 97.1566 80.0043 97.6744C79.4587 97.6937 79.1776 97.7034 78.4912 97.7295V97.6353H75.5984C75.6506 97.4201 75.8283 96.716 76.0543 95.8428C77.589 95.8423 78.1062 95.8423 79.6557 95.8423Z" fill="#0094D9"/>
<path fill-rule="evenodd" clip-rule="evenodd" d="M82.0104 89.3044L78.2932 71.0319L73.9265 89.3044H82.0104ZM104.504 95.0627L113.108 84.5715V84.2138C113.108 83.0487 112.45 81.9512 110.338 81.9512V79.4809H120.97V81.9512C118.35 81.9512 118.274 82.9738 118.274 85.594V97.7591C118.274 100.454 118.49 101.402 120.97 101.402V103.798H110.338V101.402C112.743 101.402 113.109 100.528 113.109 97.7591V88.2995L104.505 98.856V99.2898C104.505 100.744 105.313 101.402 107.276 101.402V103.798H80.8465V101.402C82.7434 101.402 83.9749 101.252 83.9749 99.3551C83.9749 98.1996 83.4667 95.279 82.669 92.0763H73.1282L71.8882 96.9613C71.015 100.163 71.3011 101.403 74.7248 101.403V103.799H52.6624V101.403C55.2827 101.403 55.5739 100.529 55.5739 97.7602V86.3952L48.8765 103.01L42.1053 85.8876V97.9742C42.1053 100.304 42.3966 101.403 44.9419 101.403V103.799H36.7893V101.403C39.56 101.403 39.7003 99.7224 39.7003 97.3923V85.5957C39.7003 83.4922 39.7003 81.9529 37.009 81.9529V79.4826H45.6692L50.4072 92.0115L55.1402 79.4826H63.5091V81.9529C60.8934 81.9529 60.8184 82.9755 60.8184 85.5957V97.7608C60.8184 100.089 61.0393 100.821 61.7626 101.037C63.3694 101.62 66.3559 101.47 67.224 99.723C67.8111 98.6329 68.464 96.8103 69.1164 94.3411L80.4025 49.9875L90.6036 93.5326C91.6937 98.2666 92.3517 99.4306 93.3743 100.455C94.39 101.327 97.7427 101.985 98.9072 100.671C99.1973 100.38 99.3381 99.8729 99.3381 97.7602V85.5952C99.3381 82.8245 99.1229 81.9524 96.5771 81.9524V79.482H107.274V81.9524C104.654 81.9524 104.504 83.0504 104.504 85.5952L104.504 95.0627Z" fill="white"/>
</g>
<defs>
<clipPath id="clip0_29050_3909">
<rect width="155.593" height="150" fill="white"/>
</clipPath>
</defs>
</svg>
