<svg xmlns="http://www.w3.org/2000/svg" width="268" height="100" fill="none"><path fill="#A435F0" d="m41.324 23.859-20.665-11.93L0 23.86v-11.93L20.662 0l20.665 11.93-.003 11.929Z"/><path fill="#000" d="M0 33.877h10.823v26.297c0 6.794 5.074 10.105 9.839 10.105 4.806 0 9.84-3.4 9.84-10.197V33.876h10.825V60.8c0 6.259-1.968 11.088-5.904 14.4-3.938 3.309-8.855 4.92-14.852 4.92-5.992 0-10.912-1.608-14.756-4.92C1.968 71.891 0 67.241 0 61.068V33.877Zm134.9 32.682c-3.276 2.918-7.009 4.347-11.265 4.347-7.764 0-12.97-4.424-13.559-11.274h34.971s.235-2.211.235-4.288c0-6.441-2.058-11.809-6.264-16.191-4.112-4.382-9.477-6.53-16.009-6.53-6.885 0-12.524 2.148-16.997 6.53-4.383 4.382-6.618 10.106-6.618 17.265v.353c0 7.067 2.235 12.703 6.618 16.909 4.382 4.202 10.197 6.35 17.264 6.35 8.218 0 14.756-3.242 19.662-8.83l-8.038-4.641Zm-20.571-21.95c2.412-1.88 5.368-2.862 8.677-2.862 3.129 0 5.723.983 7.962 2.953 2.135 1.794 3.288 3.997 3.388 6.53h-24.003c.347-2.618 1.671-4.824 3.979-6.618l-.003-.003Zm129.524 41.497C239.462 96.474 234.868 100 227.824 100h-4.883v-9.594h3.947c2.424 0 4.677-.912 6.824-5.865l2.147-4.959-18.518-45.705h11.003l13.15 32.917 13.509-32.917h11l-22.15 52.229ZM83.462 16.615v21.344c-3.547-3.177-9.065-5.068-14.4-5.068-6.353 0-11.718 2.236-16.1 6.794-4.294 4.474-6.441 10.018-6.441 16.727 0 6.712 2.147 12.256 6.44 16.818 4.383 4.473 9.75 6.711 16.1 6.711 7.324 0 11.954-2.88 14.4-5.135v4.15h10.736V16.618l-10.735-.003Zm-3.22 49.64c-2.595 2.595-5.904 3.94-9.75 3.94-3.848 0-6.977-1.345-9.571-3.94-2.5-2.593-3.756-5.902-3.756-9.837 0-3.938 1.253-7.247 3.756-9.841 2.594-2.595 5.723-3.936 9.57-3.936 3.847 0 7.156 1.341 9.75 3.936 2.683 2.594 4.03 5.903 4.03 9.84 0 3.936-1.347 7.245-4.03 9.839Zm120.411-33.273c-8.153 0-12.391 3.383-15.294 6.642-1.162-2.215-4.433-6.642-12.074-6.642-6.459 0-10.264 3.265-12.164 5.589v-4.689h-10.642v45.08h10.642V53.02c0-6.083 3.758-10.465 8.764-10.465 5.103 0 8.053 3.847 8.053 10.018v26.385h10.644V53.018c0-6.17 3.665-10.465 8.942-10.465 5.1 0 8.05 3.847 8.05 10.015v26.388h10.735V51.05c0-11.753-6.318-18.065-15.656-18.065v-.003Z"/></svg>